<mxfile host="Electron" modified="2023-10-26T14:55:47.089Z" agent="Mozilla/5.0 (Windows NT 10.0; Win64; x64) AppleWebKit/537.36 (KHTML, like Gecko) draw.io/21.6.8 Chrome/114.0.5735.289 Electron/25.5.0 Safari/537.36" etag="r_Bzmmwk9mwHbLT0WhkV" version="21.6.8" type="device">
  <diagram id="C5RBs43oDa-KdzZeNtuy" name="Page-1">
    <mxGraphModel dx="1434" dy="884" grid="1" gridSize="10" guides="1" tooltips="1" connect="1" arrows="1" fold="1" page="1" pageScale="1" pageWidth="827" pageHeight="1169" math="0" shadow="0">
      <root>
        <mxCell id="WIyWlLk6GJQsqaUBKTNV-0" />
        <mxCell id="WIyWlLk6GJQsqaUBKTNV-1" parent="WIyWlLk6GJQsqaUBKTNV-0" />
        <mxCell id="utQaYWbNKHAZ5crQSjIT-2" style="edgeStyle=orthogonalEdgeStyle;rounded=0;orthogonalLoop=1;jettySize=auto;html=1;exitX=0.5;exitY=1;exitDx=0;exitDy=0;entryX=0.5;entryY=0;entryDx=0;entryDy=0;" edge="1" parent="WIyWlLk6GJQsqaUBKTNV-1" source="utQaYWbNKHAZ5crQSjIT-0" target="utQaYWbNKHAZ5crQSjIT-1">
          <mxGeometry relative="1" as="geometry" />
        </mxCell>
        <mxCell id="utQaYWbNKHAZ5crQSjIT-0" value="main" style="rounded=1;whiteSpace=wrap;html=1;" vertex="1" parent="WIyWlLk6GJQsqaUBKTNV-1">
          <mxGeometry x="320" y="110" width="160" height="60" as="geometry" />
        </mxCell>
        <mxCell id="utQaYWbNKHAZ5crQSjIT-4" style="edgeStyle=orthogonalEdgeStyle;rounded=0;orthogonalLoop=1;jettySize=auto;html=1;exitX=0.5;exitY=1;exitDx=0;exitDy=0;entryX=0.5;entryY=0;entryDx=0;entryDy=0;" edge="1" parent="WIyWlLk6GJQsqaUBKTNV-1" source="utQaYWbNKHAZ5crQSjIT-1" target="utQaYWbNKHAZ5crQSjIT-3">
          <mxGeometry relative="1" as="geometry" />
        </mxCell>
        <mxCell id="utQaYWbNKHAZ5crQSjIT-1" value="vss" style="rounded=1;whiteSpace=wrap;html=1;" vertex="1" parent="WIyWlLk6GJQsqaUBKTNV-1">
          <mxGeometry x="320" y="220" width="160" height="60" as="geometry" />
        </mxCell>
        <mxCell id="utQaYWbNKHAZ5crQSjIT-6" style="edgeStyle=orthogonalEdgeStyle;rounded=0;orthogonalLoop=1;jettySize=auto;html=1;exitX=0.5;exitY=1;exitDx=0;exitDy=0;entryX=0.5;entryY=0;entryDx=0;entryDy=0;" edge="1" parent="WIyWlLk6GJQsqaUBKTNV-1" source="utQaYWbNKHAZ5crQSjIT-3" target="utQaYWbNKHAZ5crQSjIT-5">
          <mxGeometry relative="1" as="geometry" />
        </mxCell>
        <mxCell id="utQaYWbNKHAZ5crQSjIT-8" style="edgeStyle=orthogonalEdgeStyle;rounded=0;orthogonalLoop=1;jettySize=auto;html=1;exitX=0.5;exitY=1;exitDx=0;exitDy=0;" edge="1" parent="WIyWlLk6GJQsqaUBKTNV-1" source="utQaYWbNKHAZ5crQSjIT-3" target="utQaYWbNKHAZ5crQSjIT-7">
          <mxGeometry relative="1" as="geometry" />
        </mxCell>
        <mxCell id="utQaYWbNKHAZ5crQSjIT-3" value="vss/internal/command" style="rounded=1;whiteSpace=wrap;html=1;" vertex="1" parent="WIyWlLk6GJQsqaUBKTNV-1">
          <mxGeometry x="320" y="340" width="160" height="60" as="geometry" />
        </mxCell>
        <mxCell id="utQaYWbNKHAZ5crQSjIT-5" value="vss/internal/config" style="rounded=1;whiteSpace=wrap;html=1;" vertex="1" parent="WIyWlLk6GJQsqaUBKTNV-1">
          <mxGeometry x="170" y="460" width="160" height="60" as="geometry" />
        </mxCell>
        <mxCell id="utQaYWbNKHAZ5crQSjIT-7" value="vss/internal/build" style="rounded=1;whiteSpace=wrap;html=1;" vertex="1" parent="WIyWlLk6GJQsqaUBKTNV-1">
          <mxGeometry x="470" y="460" width="160" height="60" as="geometry" />
        </mxCell>
      </root>
    </mxGraphModel>
  </diagram>
</mxfile>
